# xmcd CD database file
#
# Track frame offsets:
#	150
#	21008
#	40779
#	57109
#	69176
#	89472
#	103152
#	120241
#	136509
#	153347
#	169035
#	186758
#	204566
#	220338
#	237695
#	250863
#	270575
#	282315
#	304211
#	321202
#
# Disc length: 4503 seconds
#
# Revision: 0
# Processed by: cddbd v1.5.1PL2 Copyright (c) Steve Scherf et al.
# Submitted via: cdripper 1,0,32,406
#
DISCID=16119514
DTITLE=Garth Brooks - The Hits
DYEAR=1994
DGENRE=Country
TTITLE0=Ain't Going Down ('Til The Sun Comes Up)
TTITLE1=Friends In Low Places
TTITLE2=Burning Bridges
TTITLE3=Callin' Baton Rouge
TTITLE4=The River
TTITLE5=Much Too Young (To Feel This Damn Old)
TTITLE6=The Thunder Rolls
TTITLE7=American Honky Tonk Bar Association
TTITLE8=If Tomorrow Never Comes
TTITLE9=Unanswered Prayers
TTITLE10=Standing Outside The Fire
TTITLE11=Rodeo
TTITLE12=What She's Doing Now
TTITLE13=We Shall Be Free
TTITLE14=Papa Loved Mama
TTITLE15=Shameless
TTITLE16=Two Of A Kind Workin' On A Full House
TTITLE17=That Summer
TTITLE18=The Red Strokes
TTITLE19=The Dance
EXTD=YEAR: 1994
EXTT0=
EXTT1=
EXTT2=
EXTT3=
EXTT4=
EXTT5=
EXTT6=
EXTT7=
EXTT8=
EXTT9=
EXTT10=
EXTT11=
EXTT12=
EXTT13=
EXTT14=
EXTT15=
EXTT16=
EXTT17=
EXTT18=
EXTT19=
PLAYORDER=
